<?xml version="1.0" standalone="no"?>
<!DOCTYPE svg PUBLIC "-//W3C//DTD SVG 20010904//EN"
 "http://www.w3.org/TR/2001/REC-SVG-20010904/DTD/svg10.dtd">
<svg version="1.0" xmlns="http://www.w3.org/2000/svg"
 width="300.000000pt" height="200.000000pt" viewBox="0 0 300.000000 200.000000"
 preserveAspectRatio="xMidYMid meet">
<metadata>
Created by potrace 1.10, written by Peter Selinger 2001-2011
</metadata>
<g transform="translate(0.000000,200.000000) scale(0.100000,-0.100000)"
fill="#000000" stroke="none">
<path d="M2970 1978 c-1 -13 -1 -36 -2 -53 0 -16 0 -43 2 -60 1 -16 1 -63 0
-103 -1 -40 0 -76 4 -79 13 -13 5 -33 -13 -33 -18 0 -19 -2 -4 -31 15 -31 16
-51 11 -212 -2 -48 0 -87 4 -87 3 0 9 -8 11 -17 3 -10 5 143 6 340 1 229 -3
357 -9 357 -5 0 -10 -10 -10 -22z"/>
<path d="M430 1654 c0 -4 10 -26 21 -50 l22 -42 -31 -66 c-24 -51 -27 -63 -13
-54 34 21 62 74 56 104 -5 25 -4 27 7 14 7 -8 20 -16 27 -18 60 -13 71 -14 71
-3 0 6 -9 11 -19 11 -13 0 -27 15 -42 45 -31 62 -51 79 -37 31 6 -20 15 -36
20 -36 4 0 8 -4 8 -9 0 -24 -41 6 -57 40 -15 34 -33 52 -33 33z"/>
<path d="M680 1638 c-14 -5 -37 -7 -52 -4 -18 4 -28 0 -32 -11 -7 -17 -3 -17
127 6 58 10 134 3 206 -20 54 -17 201 -90 201 -100 0 -9 -24 0 -170 60 -109
45 -241 59 -311 32 -17 -6 -1 -8 51 -4 56 3 93 -1 145 -15 78 -22 192 -61 245
-85 59 -25 145 -47 187 -47 22 0 42 -3 46 -6 9 -9 170 -74 185 -74 6 0 12 5
12 10 0 6 -11 10 -24 10 -13 0 -34 8 -47 18 -27 21 -131 64 -145 61 -5 -1 -18
2 -29 6 -11 4 -42 17 -69 27 -27 10 -85 38 -130 62 -120 65 -195 87 -291 85
-44 -1 -91 -6 -105 -11z"/>
<path d="M596 1532 c-9 -14 30 -55 44 -47 5 3 10 1 12 -4 1 -5 39 -19 83 -30
43 -12 84 -26 89 -31 6 -6 19 -10 29 -10 16 0 17 3 7 15 -11 13 -9 15 13 15
20 0 26 6 29 32 4 24 2 28 -6 17 -6 -8 -30 -16 -54 -17 -35 -3 -41 -1 -36 12
3 9 11 13 18 9 7 -4 7 -2 -1 7 -10 11 -15 11 -28 0 -8 -7 -15 -9 -15 -5 0 4
-7 2 -15 -5 -12 -10 -15 -10 -15 3 0 8 7 20 15 27 26 22 9 22 -29 0 -38 -21
-96 -27 -96 -10 0 5 -6 7 -14 4 -9 -3 -16 2 -18 13 -3 14 -5 15 -12 5z"/>
<path d="M150 1512 c0 -10 49 -62 58 -62 5 0 17 6 27 14 18 13 17 14 -12 20
-17 4 -34 14 -37 22 -6 14 -36 20 -36 6z"/>
<path d="M467 1455 c-8 -7 -18 -30 -21 -50 -5 -22 -11 -33 -18 -29 -7 4 -8 3
-4 -4 4 -7 2 -12 -4 -12 -6 0 -15 -11 -19 -24 -9 -23 -44 -36 -98 -36 -39 0
-21 -25 21 -28 31 -3 41 1 59 25 12 15 34 41 49 56 15 15 27 30 28 32 0 3 1
15 1 28 1 16 2 18 6 5 2 -10 13 -18 24 -18 10 0 19 -5 19 -11 0 -19 20 2 39
42 22 45 12 52 -18 12 -11 -16 -21 -23 -21 -16 0 7 -7 10 -15 7 -20 -8 -19 6
3 22 16 12 16 13 0 14 -9 0 -23 -7 -31 -15z"/>
<path d="M977 1449 c-10 -13 -16 -16 -19 -8 -4 13 -28 4 -28 -10 0 -5 12 -16
26 -26 21 -14 28 -15 35 -4 4 7 4 18 -1 24 -6 7 -2 11 10 11 16 0 19 -6 16
-31 -2 -16 -10 -42 -17 -58 -11 -24 -10 -29 7 -42 23 -17 34 -19 34 -5 0 6 -7
10 -16 10 -24 0 -10 25 15 26 25 1 61 31 61 50 0 27 -20 23 -49 -8 -17 -18
-31 -28 -31 -21 0 6 7 19 16 28 13 12 14 19 5 28 -6 6 -11 21 -11 34 0 30 -33
31 -53 2z"/>
<path d="M1959 1426 c-2 -2 -17 -6 -34 -9 -33 -5 -210 -52 -237 -62 -10 -4
-18 -11 -18 -17 0 -5 4 -7 8 -4 4 2 14 1 22 -4 8 -5 32 2 67 21 65 35 67 35
59 5 -4 -16 1 -31 15 -47 l20 -24 -5 52 c-4 51 -4 52 22 51 15 0 38 4 52 10
14 5 36 8 50 6 14 -1 31 -3 37 -3 7 -1 31 -17 53 -37 22 -20 40 -31 40 -24 0
10 3 10 15 0 13 -10 15 -9 15 9 0 11 4 21 9 21 4 0 8 -10 7 -22 -1 -14 5 -23
14 -23 8 0 17 -4 19 -10 2 -5 11 -15 20 -22 9 -7 12 -13 6 -13 -5 0 -3 -5 5
-10 45 -29 39 11 -7 48 -45 36 -39 52 8 23 19 -12 39 -21 44 -21 18 0 -57 63
-79 66 -11 2 -57 13 -101 24 -78 19 -117 24 -126 16z"/>
<path d="M1247 1413 c-4 -3 -7 -15 -7 -26 0 -11 -7 -29 -17 -39 -9 -10 -21
-28 -28 -41 -6 -12 -17 -21 -23 -19 -7 1 -12 -3 -12 -8 0 -6 -11 -15 -25 -22
-26 -12 -67 -66 -84 -110 -18 -49 7 -31 40 27 29 51 67 91 77 80 3 -2 -1 -11
-8 -20 -7 -8 -8 -15 -3 -15 17 0 57 43 77 82 12 23 28 39 45 43 23 6 24 8 9
19 -16 12 -15 14 5 34 l21 22 -30 0 c-17 0 -34 -3 -37 -7z"/>
<path d="M701 1385 c-17 -15 -31 -31 -31 -37 0 -5 -10 -23 -21 -40 -19 -26
-27 -30 -59 -25 -33 4 -77 -13 -65 -25 3 -3 -1 -11 -10 -18 -10 -8 -15 -9 -15
-1 0 22 -18 10 -46 -31 -15 -24 -27 -52 -27 -63 1 -11 -1 -15 -4 -8 -2 7 -11
9 -20 6 -10 -4 -14 -2 -10 4 4 6 1 14 -5 16 -10 4 -9 8 2 16 13 10 13 13 -2
25 -10 7 -18 21 -18 30 0 10 -5 14 -11 10 -6 -3 -9 -19 -5 -34 4 -24 2 -27
-14 -23 -25 7 -25 -1 -3 -38 18 -31 43 -42 78 -35 11 3 23 5 27 5 4 1 10 17
14 37 5 25 9 32 15 22 8 -12 13 -5 10 14 0 4 5 5 13 2 7 -3 26 7 42 21 l29 26
-28 -17 c-21 -13 -26 -13 -22 -3 8 20 48 44 53 31 4 -12 57 12 90 41 12 11 22
31 22 43 0 17 9 25 36 34 19 7 46 9 59 6 33 -8 108 -84 155 -157 37 -58 40
-60 41 -33 0 16 2 39 3 52 2 12 -1 22 -6 22 -5 0 -16 16 -25 35 -9 19 -20 35
-25 35 -5 0 -1 -14 7 -31 9 -17 15 -38 13 -47 -3 -13 -8 -10 -20 13 -20 38
-122 135 -142 135 -8 0 -21 2 -29 6 -8 3 -28 -7 -46 -21z"/>
<path d="M350 1390 c0 -5 14 -10 31 -10 17 0 28 4 24 10 -3 6 -17 10 -31 10
-13 0 -24 -4 -24 -10z"/>
<path d="M1158 1352 c-25 -27 -51 -58 -57 -70 -6 -12 -17 -22 -23 -22 -6 0 -3
11 7 26 9 14 14 28 11 31 -8 8 -34 -16 -41 -38 -4 -10 -14 -19 -23 -20 -14 0
-13 -2 3 -9 11 -5 15 -9 9 -9 -6 -1 -21 -25 -35 -53 -13 -29 -27 -54 -31 -56
-15 -7 -8 -89 12 -148 11 -32 33 -72 49 -89 42 -44 53 -137 46 -361 -7 -188
-16 -254 -41 -292 -15 -23 -11 -47 4 -27 10 14 42 18 42 6 0 -5 -4 -13 -10
-16 -13 -8 -13 -25 0 -25 13 0 45 37 45 53 1 7 -11 18 -25 25 l-25 13 27 -6
c15 -3 29 -1 32 3 3 5 6 46 7 92 2 57 9 95 21 119 10 19 18 51 18 71 0 56 12
140 20 140 4 0 15 -35 25 -78 10 -42 26 -99 36 -127 39 -111 50 -217 24 -251
-20 -27 -20 -51 0 -34 12 10 15 10 15 -4 0 -24 8 -20 50 25 42 45 42 40 0 191
-11 38 -17 82 -14 96 3 15 -4 85 -15 155 -12 70 -21 135 -21 145 0 15 13 17
147 14 106 -2 169 1 223 12 77 16 203 70 233 100 16 16 18 16 41 -6 41 -37 58
-128 59 -307 l1 -156 -58 -110 c-32 -61 -65 -118 -74 -128 -22 -24 -9 -32 21
-12 14 9 29 30 32 46 4 17 13 33 21 36 8 3 14 12 14 20 0 8 4 12 8 9 5 -3 16
8 25 24 10 16 23 27 30 24 8 -3 20 12 32 38 10 24 32 66 48 93 29 49 30 53 28
168 -2 77 1 117 8 117 6 0 11 -7 11 -16 0 -8 20 -54 44 -102 91 -178 89 -170
84 -307 -4 -112 -3 -123 15 -134 27 -18 32 -6 8 20 -11 12 -18 26 -14 32 3 5
9 4 13 -3 4 -7 13 -9 19 -5 7 4 17 2 24 -3 9 -8 12 33 11 181 l0 192 -37 77
c-20 42 -37 84 -37 92 0 9 -4 16 -9 16 -11 0 5 84 29 156 11 31 19 78 19 103
-1 44 -2 42 -17 -29 -8 -41 -18 -77 -22 -80 -11 -9 -38 -100 -29 -100 5 0 9
-10 9 -22 -1 -22 -1 -22 -25 5 -29 32 -30 32 -62 7 -14 -11 -21 -20 -16 -20 5
0 14 5 20 11 30 30 106 -76 105 -145 -1 -42 -19 -55 -31 -23 -10 26 -31 37
-31 17 0 -21 36 -79 53 -83 9 -3 15 -2 13 1 -7 13 13 52 28 52 7 0 16 -10 20
-22 9 -36 7 -41 -9 -28 -13 11 -15 8 -15 -14 0 -14 -4 -26 -10 -26 -5 0 -10
-8 -10 -17 0 -10 4 -14 8 -8 8 11 52 15 52 5 0 -15 -30 -31 -52 -28 -17 2 -24
11 -26 32 -3 20 -6 25 -12 16 -5 -8 -16 12 -30 58 -13 40 -26 70 -30 67 -4 -2
-20 23 -35 56 -29 60 -78 122 -105 131 -8 3 -12 9 -8 13 4 4 15 2 25 -6 17
-13 17 -13 2 10 -9 14 -30 30 -48 36 -40 13 -61 39 -61 75 0 15 -5 42 -11 61
-14 42 -34 65 -25 29 3 -14 -3 -8 -14 15 -11 22 -20 50 -20 63 0 30 -18 28
-30 -4 -12 -32 -13 -67 -1 -60 5 3 12 -1 15 -10 4 -9 9 -14 12 -11 9 9 54 -61
54 -84 0 -11 -4 -17 -10 -14 -15 9 -50 -14 -50 -33 0 -10 3 -13 8 -6 17 24 60
7 108 -43 92 -96 99 -110 96 -181 -2 -28 -5 -33 -24 -30 -25 3 -37 24 -68 124
-13 41 -31 77 -42 85 -11 8 -26 19 -32 25 -9 9 -32 2 -91 -27 -43 -21 -82 -36
-86 -33 -4 2 -9 -3 -13 -11 -3 -8 -10 -15 -16 -15 -6 0 -9 4 -6 8 2 4 -8 8
-22 7 -17 0 -26 5 -24 13 2 10 -3 10 -20 -2 -12 -9 -30 -16 -40 -16 -12 0 -15
-5 -11 -17 5 -13 3 -15 -13 -9 -10 5 -32 12 -47 17 -25 7 -27 6 -17 -6 17 -20
-4 -20 -60 0 -36 13 -41 13 -30 0 10 -12 6 -13 -27 -8 -21 3 -42 10 -48 14
-14 14 -31 11 -17 -3 18 -18 15 -30 -5 -24 -88 25 -116 12 -128 -62 -4 -24
-13 -46 -20 -48 -6 -3 -18 -30 -25 -60 -7 -29 -17 -54 -22 -54 -12 0 -5 -50 8
-58 14 -9 -3 -75 -18 -70 -7 3 -15 16 -19 31 -5 20 -3 27 10 30 11 3 10 5 -5
6 -21 1 -22 4 -18 135 3 112 1 135 -12 140 -10 4 -14 17 -12 43 2 25 -1 37 -9
36 -19 -4 -50 43 -57 86 -3 22 -13 47 -22 55 -13 13 -13 17 -2 21 9 4 13 17
10 40 -3 27 0 35 11 35 9 0 18 9 22 19 7 23 119 160 147 179 21 15 43 52 30
52 -5 0 -30 -22 -54 -48z m133 -629 c5 -14 7 -33 5 -40 -3 -8 0 -22 6 -33 9
-14 9 -22 -1 -34 -9 -10 -9 -16 -3 -16 6 0 11 -12 11 -27 1 -16 1 -39 1 -52 1
-13 -4 -29 -11 -35 -9 -8 -10 -8 -6 0 4 7 0 17 -9 24 -12 11 -12 15 -2 21 10
7 10 9 -1 9 -7 0 -11 6 -7 15 3 8 1 15 -5 15 -5 0 -9 6 -7 13 1 6 -10 35 -25
64 -32 61 -33 78 -9 92 30 18 52 12 63 -16z m787 -53 c16 -24 21 -42 17 -62
-4 -18 -2 -28 5 -28 6 0 8 5 5 10 -3 6 -1 10 4 10 19 0 12 -29 -10 -40 -33
-18 -69 -22 -70 -8 -1 7 -2 38 -3 68 -1 30 -6 63 -10 73 -16 35 36 15 62 -23z
m-4 -148 c-6 -4 -16 -17 -23 -29 -15 -29 -31 -30 -31 -2 0 11 5 17 10 14 6 -3
13 1 16 9 3 9 14 16 23 16 10 0 12 -3 5 -8z m237 -104 l-9 -33 -1 36 c-1 20 2
39 6 43 13 12 15 -10 4 -46z m-283 11 c-1 -20 -4 -26 -9 -17 -8 12 -13 5 -11
-14 1 -3 -5 -11 -12 -17 -11 -9 -12 -6 -8 14 2 14 8 25 12 25 4 0 10 9 13 20
8 30 16 24 15 -11z m-704 -40 c-3 -5 -1 -9 3 -9 12 0 34 -61 26 -73 -4 -6 -1
-7 7 -2 8 5 11 3 8 -6 -3 -8 -15 -14 -28 -14 -19 0 -23 6 -24 35 -1 19 3 38 9
42 6 5 6 8 -2 8 -8 0 -13 14 -12 38 0 33 1 35 10 14 5 -13 7 -28 3 -33z"/>
<path d="M2274 1355 c3 -14 19 -42 35 -61 28 -31 31 -42 31 -98 0 -50 5 -69
23 -92 19 -25 22 -39 20 -106 -2 -74 -16 -124 -31 -114 -13 8 -30 -21 -21 -35
7 -11 9 -11 9 4 0 9 5 17 10 17 6 0 10 -7 10 -16 0 -8 5 -12 10 -9 6 3 10 18
10 33 0 36 12 53 29 43 16 -10 9 -60 -14 -105 -9 -16 -12 -32 -8 -35 5 -3 14
-17 20 -31 l11 -25 -1 25 c-1 14 -6 28 -12 32 -6 5 -2 23 14 53 17 31 24 63
25 104 1 32 4 57 9 54 4 -2 7 8 7 22 0 15 4 24 10 20 6 -3 10 -17 10 -31 0
-14 4 -34 10 -44 15 -28 26 -285 11 -276 -6 4 -11 4 -11 -1 0 -4 11 -13 25
-20 20 -9 25 -8 25 2 0 7 -4 15 -9 17 -4 2 -10 51 -13 110 -3 59 -1 105 4 102
12 -8 10 6 -11 66 -11 30 -17 58 -14 63 3 4 -4 16 -15 25 -10 9 -23 28 -27 42
-4 14 -12 30 -17 37 -5 6 -8 18 -6 25 2 8 -13 28 -32 46 -19 17 -29 32 -22 32
6 0 12 8 12 19 0 23 -61 85 -70 71 -4 -6 -14 -2 -25 10 -18 20 -18 20 16 20
35 1 28 10 -19 25 -20 6 -22 4 -18 -20z m119 -247 c8 -32 13 -58 11 -58 -10 0
-41 85 -36 102 6 25 8 22 25 -44z m51 -30 c9 -33 7 -68 -3 -68 -5 0 -11 -19
-15 -42 -5 -30 -10 -38 -18 -30 -8 8 -8 27 1 70 6 33 11 64 10 69 -5 30 16 31
25 1z"/>
<path d="M126 1361 c5 -5 36 -12 69 -16 38 -4 56 -3 50 3 -5 5 -37 12 -69 15
-32 3 -55 2 -50 -2z"/>
<path d="M1927 1352 c-7 -12 80 -87 97 -84 12 3 7 11 -18 35 -42 39 -74 59
-79 49z"/>
<path d="M1474 1326 c-9 -23 5 -39 21 -26 8 7 18 9 24 6 15 -9 71 5 64 17 -4
6 2 8 15 5 12 -4 20 -2 16 3 -3 5 -19 9 -35 9 -18 0 -28 -4 -24 -10 8 -13 -31
-13 -56 0 -15 8 -21 7 -25 -4z"/>
<path d="M1890 1329 c0 -7 6 -31 14 -54 8 -22 17 -52 20 -67 4 -16 10 -28 14
-28 13 0 6 94 -9 125 -15 30 -39 45 -39 24z"/>
<path d="M7 1324 c-13 -14 3 -20 40 -16 31 4 34 6 18 13 -25 10 -50 11 -58 3z"/>
<path d="M1390 1318 c0 -3 -3 -14 -7 -24 -5 -13 -3 -15 7 -9 10 6 12 4 7 -9
-5 -12 -3 -16 5 -14 7 3 14 10 14 16 1 7 2 17 3 22 0 6 10 10 21 10 11 0 20 4
20 8 0 5 -16 8 -35 8 -19 -1 -35 -4 -35 -8z"/>
<path d="M1300 1300 c-22 -22 -26 -40 -9 -40 8 0 7 -6 -2 -17 -12 -15 -12 -16
6 -9 11 5 29 10 40 11 11 2 21 4 22 4 2 1 -5 10 -14 20 -9 11 -21 18 -27 15
-6 -3 0 4 14 15 20 17 22 21 8 21 -10 0 -27 -9 -38 -20z"/>
<path d="M2404 1289 c24 -28 30 -42 27 -61 0 -5 4 -7 11 -5 11 2 14 -3 17 -36
0 -8 12 -20 26 -27 14 -7 23 -15 20 -18 -2 -3 7 -13 20 -24 14 -11 25 -27 25
-35 0 -9 3 -13 7 -10 3 4 16 -15 29 -41 12 -26 23 -41 23 -33 1 11 4 11 19 0
15 -13 16 -12 4 3 -19 24 4 33 35 13 20 -14 23 -19 12 -26 -11 -7 -11 -9 -1
-9 19 0 26 28 12 45 -7 8 -23 15 -36 15 -30 0 -89 58 -138 134 -40 63 -113
146 -128 146 -5 0 2 -14 16 -31z"/>
<path d="M1798 1277 c12 -13 22 -29 22 -35 0 -7 5 -12 10 -12 6 0 10 6 10 13
0 21 -30 57 -47 57 -14 0 -13 -4 5 -23z"/>
<path d="M411 1254 c-27 -35 -20 -42 19 -17 26 17 29 22 17 32 -12 9 -19 7
-36 -15z"/>
<path d="M690 1271 c0 -11 26 -22 34 -13 4 3 29 5 56 5 28 -1 50 2 50 8 0 5
-31 9 -70 9 -38 0 -70 -4 -70 -9z"/>
<path d="M1453 1264 c-8 -4 -8 -14 3 -39 8 -19 14 -44 14 -55 0 -13 6 -20 18
-19 10 0 12 3 4 6 -6 2 -10 9 -7 14 3 4 0 21 -8 36 -7 15 -12 36 -10 46 3 9 3
17 1 16 -2 0 -8 -3 -15 -5z"/>
<path d="M2957 1263 c-12 -12 -7 -41 8 -47 42 -16 -2 -54 -47 -41 -22 6 -22 6
2 -14 14 -11 35 -21 48 -21 21 0 22 4 22 65 0 48 -4 65 -13 65 -8 0 -17 -3
-20 -7z"/>
<path d="M2801 1251 c-15 -10 -5 -16 26 -16 13 0 24 5 25 10 4 13 -33 18 -51
6z"/>
<path d="M1980 1230 c0 -14 8 -37 18 -51 13 -20 22 -24 37 -18 11 4 14 8 8 8
-7 1 -13 7 -13 14 0 6 -11 26 -25 42 l-24 30 -1 -25z"/>
<path d="M2540 1243 c8 -2 25 -9 38 -15 16 -8 28 -8 45 0 12 6 29 13 37 15 8
3 -19 5 -60 5 -41 0 -68 -2 -60 -5z"/>
<path d="M2700 1231 c0 -5 16 -11 35 -13 27 -3 32 -1 23 9 -12 15 -58 18 -58
4z"/>
<path d="M2197 1191 c5 -20 9 -23 41 -25 7 -1 16 -7 21 -14 10 -16 -2 -86 -17
-104 -5 -7 -13 -31 -16 -53 l-6 -40 26 55 c15 30 28 75 30 99 4 50 11 62 24
41 8 -12 10 -11 10 6 0 27 -25 61 -34 46 -4 -7 -2 -12 4 -12 6 0 8 -4 5 -10
-9 -15 -70 -7 -70 9 0 8 -5 16 -12 18 -7 3 -9 -3 -6 -16z"/>
<path d="M1630 1184 c0 -6 7 -25 15 -40 l15 -29 -3 41 c-1 24 -7 41 -14 41 -7
0 -13 -6 -13 -13z"/>
<path d="M743 1183 c-26 -10 -12 -20 27 -20 22 0 37 4 34 9 -3 4 -9 6 -14 3
-5 -3 -11 -1 -15 5 -7 11 -13 11 -32 3z"/>
<path d="M1192 1158 c-7 -7 -12 -16 -12 -21 0 -5 -14 -27 -31 -48 -22 -29 -27
-39 -15 -39 14 0 55 36 57 49 2 16 8 38 14 54 8 20 4 22 -13 5z"/>
<path d="M1270 1154 c-10 -11 -10 -17 0 -29 7 -8 9 -15 4 -15 -4 0 -3 -5 4
-12 14 -14 16 -32 3 -24 -4 3 -17 -4 -27 -16 -19 -21 -19 -21 3 -16 21 6 21 5
7 -18 -15 -21 -14 -25 0 -40 9 -9 23 -14 31 -11 7 3 15 1 17 -5 7 -20 26 1 21
22 -6 22 -18 26 -28 10 -3 -5 -11 -10 -18 -10 -8 0 -8 3 1 12 7 7 12 20 12 30
0 10 5 18 10 18 11 0 13 52 4 87 -8 28 -29 36 -44 17z"/>
<path d="M2727 1156 c-6 -16 11 -36 30 -36 16 0 16 10 -1 33 -16 21 -22 21
-29 3z"/>
<path d="M2120 1141 c0 -12 6 -21 16 -21 9 0 14 7 12 17 -5 25 -28 28 -28 4z"/>
<path d="M1367 1126 c3 -14 0 -33 -7 -41 -10 -12 -10 -19 -2 -27 9 -9 12 -8
12 3 0 12 2 12 10 -1 6 -10 8 -1 5 29 -2 24 -8 48 -13 53 -6 6 -8 0 -5 -16z"/>
<path d="M1793 1119 c14 -8 15 -14 7 -24 -9 -11 -5 -17 19 -29 39 -20 41 -20
41 5 0 16 -5 19 -22 15 -13 -3 -18 -3 -12 0 22 10 3 44 -25 44 -23 -1 -24 -2
-8 -11z"/>
<path d="M507 1112 c-4 -6 -14 -9 -21 -6 -8 3 -17 1 -20 -4 -8 -13 36 -24 47
-13 5 5 7 15 5 22 -3 10 -6 10 -11 1z"/>
<path d="M2943 1113 c-14 -5 -18 -43 -5 -43 4 0 15 -12 25 -25 16 -22 17 -30
5 -62 -10 -29 -10 -37 0 -40 15 -6 16 -33 2 -33 -6 0 -13 7 -16 15 -9 21 -21
19 -46 -10 -27 -31 -35 -72 -14 -72 8 0 12 6 9 14 -3 7 0 13 6 13 6 0 11 7 11
15 0 10 10 15 28 15 23 -1 25 -2 11 -13 -12 -10 -13 -16 -4 -34 7 -13 15 -20
18 -16 4 3 7 -3 7 -15 0 -11 -5 -24 -12 -28 -8 -5 -9 -2 -5 10 4 10 3 15 -3
11 -13 -8 -13 -35 1 -35 5 0 7 -5 4 -10 -4 -6 -2 -16 3 -23 5 -7 12 -21 15
-32 2 -11 5 75 6 190 1 194 0 211 -16 212 -10 0 -24 -2 -30 -4z"/>
<path d="M122 1099 c2 -8 -5 -14 -16 -14 -28 0 -31 -21 -5 -28 16 -4 29 1 45
18 13 14 19 25 14 25 -4 0 -16 3 -25 6 -10 4 -15 2 -13 -7z"/>
<path d="M812 1098 c3 -7 19 -14 37 -16 23 -2 31 0 26 8 -4 6 -9 9 -12 6 -3
-2 -16 0 -30 5 -19 7 -24 6 -21 -3z"/>
<path d="M1660 1086 c0 -13 6 -26 13 -29 10 -4 12 3 9 24 -5 35 -22 39 -22 5z"/>
<path d="M2180 1075 c4 -35 0 -45 -15 -45 -8 0 -15 -4 -15 -10 0 -17 15 -11
40 15 23 24 23 26 6 43 -17 16 -18 16 -16 -3z"/>
<path d="M415 1069 c-4 -6 -5 -12 -4 -14 7 -7 59 8 59 16 0 13 -47 11 -55 -2z"/>
<path d="M770 1061 c-10 -19 -8 -20 22 -14 49 9 51 15 11 27 -16 5 -25 2 -33
-13z"/>
<path d="M894 1066 c-13 -10 -16 -18 -8 -25 7 -8 17 -4 34 14 26 28 8 36 -26
11z"/>
<path d="M1873 1062 c0 -10 10 -18 24 -18 28 -2 29 4 6 22 -24 18 -32 17 -30
-4z"/>
<path d="M627 1053 c-9 -9 12 -33 29 -33 8 0 14 -6 14 -14 0 -21 20 -30 33
-16 9 10 9 14 -2 18 -8 3 -24 15 -36 28 -24 26 -28 28 -38 17z"/>
<path d="M1770 1052 c0 -4 6 -14 13 -21 7 -8 7 -11 1 -8 -13 8 -37 -17 -41
-41 -1 -9 -7 -18 -13 -20 -5 -2 -15 -13 -22 -25 -11 -22 -11 -22 11 -3 11 11
21 15 21 11 0 -5 11 7 25 25 14 19 31 35 38 36 7 0 22 2 35 2 33 3 27 15 -18
35 -45 19 -50 20 -50 9z"/>
<path d="M520 1032 c0 -20 96 -82 125 -82 24 0 17 20 -10 30 -14 5 -28 17 -31
25 -4 9 -18 15 -35 15 -16 0 -29 5 -29 10 0 6 -4 10 -10 10 -5 0 -10 -4 -10
-8z"/>
<path d="M1100 1031 c-8 -6 -17 -8 -21 -5 -4 2 -5 -4 -2 -15 3 -10 0 -22 -6
-25 -16 -10 -14 -26 3 -20 7 3 18 16 24 30 12 26 40 32 60 12 7 -7 12 -9 12
-6 0 11 -31 38 -43 38 -7 0 -19 -4 -27 -9z"/>
<path d="M1382 1025 c0 -11 3 -33 7 -50 l7 -30 5 26 c3 15 0 38 -7 50 -12 22
-13 22 -12 4z"/>
<path d="M761 996 c-8 -13 -11 -30 -9 -38 3 -8 11 -1 21 19 19 36 20 43 9 43
-5 0 -14 -11 -21 -24z"/>
<path d="M2820 980 c0 -11 7 -20 15 -20 8 0 15 9 15 20 0 11 -7 20 -15 20 -8
0 -15 -9 -15 -20z"/>
<path d="M2542 926 c11 -28 23 -53 26 -56 4 -3 8 -9 9 -15 4 -26 31 -66 38
-55 4 6 -3 29 -14 50 -11 22 -18 40 -15 40 3 0 -6 15 -20 33 -27 35 -33 53
-16 42 6 -3 10 -2 10 4 0 5 -9 9 -19 8 -19 -1 -19 -2 1 -51z"/>
<path d="M2863 957 c-13 -13 -23 -25 -23 -29 0 -11 48 16 59 34 16 26 -8 22
-36 -5z"/>
<path d="M1110 951 c0 -18 18 -36 57 -58 28 -16 65 -4 87 29 18 25 21 42 6 33
-5 -3 -10 -2 -10 4 0 6 -7 8 -15 4 -18 -6 -14 -29 4 -25 22 4 11 -18 -16 -31
-26 -14 -28 -13 -43 16 -20 37 -70 56 -70 28z"/>
<path d="M2580 955 c6 -8 9 -19 5 -25 -4 -6 -3 -10 2 -8 8 2 93 -21 106 -29 4
-2 5 -9 1 -14 -3 -6 -15 -4 -30 5 -45 30 -39 15 22 -50 38 -40 67 -63 74 -59
9 5 9 3 0 -11 -13 -22 -58 -28 -79 -11 -11 10 -13 7 -7 -13 l7 -25 -20 24
c-22 24 -29 57 -10 46 6 -4 5 2 -3 14 -10 17 -14 18 -21 6 -9 -18 11 -58 50
-101 15 -16 22 -23 16 -14 -18 23 -16 29 6 27 11 0 18 -4 15 -8 -2 -4 4 -13
13 -20 14 -12 15 -11 9 9 -4 13 -3 22 3 22 5 0 12 -8 16 -19 3 -10 15 -29 26
-42 l21 -24 -7 33 c-6 31 8 46 18 20 3 -8 6 -6 6 5 1 11 -6 17 -19 17 -12 0
-20 -7 -20 -17 -1 -13 -5 -11 -15 9 -17 30 -12 55 11 55 8 0 13 -6 10 -12 -2
-6 2 -12 9 -12 23 0 -8 50 -59 94 -46 40 -52 62 -12 42 13 -7 7 2 -14 23 -19
18 -37 33 -40 31 -10 -3 -26 11 -38 32 -11 19 -11 19 -12 -5 l-1 -25 -18 23
c-11 12 -22 22 -26 22 -4 0 -2 -7 5 -15z"/>
<path d="M2726 953 c21 -15 64 -17 64 -3 0 6 -6 10 -12 11 -7 0 -26 2 -41 3
-25 2 -27 0 -11 -11z"/>
<path d="M476 944 c-3 -8 -19 -14 -37 -14 -19 0 -37 -7 -45 -17 -18 -24 -18
-38 1 -23 8 6 23 9 35 5 15 -5 26 -1 36 12 14 17 14 17 29 -1 19 -24 28 -16
20 17 -8 30 -31 42 -39 21z"/>
<path d="M912 944 c9 -9 21 -13 27 -10 20 13 11 26 -16 26 -25 0 -26 -1 -11
-16z"/>
<path d="M70 934 c0 -12 6 -15 24 -10 19 5 25 1 29 -16 4 -12 9 -20 12 -16 3
3 0 17 -6 32 -14 30 -59 38 -59 10z"/>
<path d="M1350 923 c19 -8 49 -17 65 -19 20 -2 11 4 -25 16 -67 23 -88 25 -40
3z"/>
<path d="M339 916 c12 -14 11 -16 -7 -16 -18 0 -50 -26 -41 -34 2 -2 21 -1 41
1 32 5 36 8 35 31 -2 18 -9 28 -22 31 -17 3 -18 1 -6 -13z"/>
<path d="M870 895 c0 -8 6 -15 13 -15 6 0 23 -3 37 -6 l25 -6 -24 21 c-27 25
-51 27 -51 6z"/>
<path d="M1115 869 c-4 -6 0 -9 11 -7 15 2 18 -3 17 -22 -2 -23 -2 -23 6 -5 5
11 10 26 10 33 1 15 -35 16 -44 1z"/>
<path d="M2537 860 c4 -14 7 -35 8 -47 0 -11 3 -19 7 -16 5 2 13 -8 20 -22 10
-22 9 -28 -3 -36 -11 -7 -11 -9 4 -9 9 0 17 5 17 11 0 5 6 7 13 3 7 -5 7 -1
-2 10 -8 10 -27 43 -43 74 -16 31 -25 46 -21 32z"/>
<path d="M1923 850 c-4 -15 -14 -20 -37 -20 -18 0 -37 5 -44 12 -8 8 -15 8
-25 0 -8 -7 -17 -10 -21 -7 -3 3 -2 0 3 -7 6 -6 34 -11 64 -12 55 -1 87 14 87
40 0 21 -21 17 -27 -6z"/>
<path d="M676 838 c7 -25 22 -38 42 -38 7 0 4 8 -8 20 -11 11 -20 25 -20 30 0
6 -5 10 -11 10 -6 0 -8 -9 -3 -22z"/>
<path d="M762 838 c2 -13 7 -29 11 -35 10 -15 47 -17 47 -3 0 6 -7 10 -15 10
-9 0 -20 11 -25 25 -12 31 -22 33 -18 3z"/>
<path d="M2791 846 c-12 -14 -5 -46 10 -46 5 0 9 14 9 30 0 34 -3 36 -19 16z"/>
<path d="M870 793 c0 -13 3 -13 15 -3 12 10 16 9 21 -3 3 -9 13 -13 25 -10 29
8 6 30 -31 31 -21 0 -30 -4 -30 -15z"/>
<path d="M1141 781 c-9 -6 -15 -33 -17 -78 -3 -52 -1 -62 6 -45 6 13 12 39 14
58 3 18 7 42 11 54 7 22 6 23 -14 11z"/>
<path d="M2929 747 c13 -21 18 -41 14 -57 -4 -15 -2 -21 5 -16 6 3 18 -1 26
-10 15 -14 16 -14 16 5 0 12 -4 21 -10 21 -5 0 -10 9 -10 20 0 11 -4 20 -8 20
-5 0 -14 11 -20 25 -6 14 -17 25 -23 25 -6 0 -2 -15 10 -33z"/>
<path d="M2880 749 c0 -6 -6 -9 -14 -6 -14 6 -36 -10 -36 -26 0 -4 10 -7 21
-5 23 3 60 48 40 48 -6 0 -11 -5 -11 -11z"/>
<path d="M2760 620 c-1 -14 -4 -41 -6 -60 -2 -20 0 -30 5 -25 13 15 20 68 11
90 -8 18 -9 18 -10 -5z"/>
<path d="M2979 628 c-6 -19 -4 -108 3 -108 4 0 8 25 8 55 0 30 -2 55 -5 55 -3
0 -5 -1 -6 -2z"/>
<path d="M2640 578 c0 -13 5 -30 10 -38 7 -11 10 -5 10 23 0 20 -4 37 -10 37
-5 0 -10 -10 -10 -22z"/>
<path d="M2504 559 c-5 -9 -2 -10 9 -6 11 4 17 1 17 -8 0 -8 5 -15 11 -15 6 0
9 8 7 17 -4 21 -33 29 -44 12z"/>
<path d="M226 448 c-3 -13 -1 -27 5 -33 7 -6 10 -7 9 0 -4 19 0 35 9 35 4 0 5
-18 1 -40 -6 -32 -5 -38 5 -30 18 15 23 42 14 68 -11 28 -35 28 -43 0z"/>
<path d="M2930 393 c0 -5 14 -19 30 -31 29 -22 30 -22 30 -3 0 13 -5 18 -14
15 -7 -3 -21 2 -30 11 -9 9 -16 12 -16 8z"/>
<path d="M2003 325 c-9 -19 -20 -32 -25 -29 -4 3 -5 -2 -2 -10 3 -9 1 -16 -5
-16 -7 0 -11 -8 -9 -17 2 -12 -3 -17 -14 -15 -11 2 -18 -3 -18 -13 0 -9 -4
-14 -9 -10 -14 8 -25 -35 -12 -48 8 -8 11 -5 11 10 0 17 5 21 28 20 21 -2 27
2 25 17 0 10 12 47 28 82 29 66 31 91 2 29z"/>
<path d="M894 305 c1 -28 6 -31 24 -13 8 8 9 15 1 25 -17 20 -27 16 -25 -12z"/>
<path d="M1557 320 c26 -11 48 -46 33 -55 -5 -3 -10 -1 -10 6 0 7 -2 10 -5 7
-3 -3 -3 -13 1 -22 6 -16 8 -16 27 1 19 18 19 17 13 -4 -5 -14 -3 -23 3 -23 6
0 11 14 11 30 0 19 -5 30 -14 30 -8 0 -17 8 -20 18 -4 11 -17 18 -33 19 -26 2
-26 1 -6 -7z"/>
<path d="M1550 299 c0 -5 -5 -7 -10 -4 -14 8 -7 -32 8 -47 9 -9 11 -3 10 25
-1 20 -3 37 -5 37 -1 0 -3 -5 -3 -11z"/>
<path d="M54 253 c-10 -15 -13 -16 -28 -4 -10 8 -16 9 -16 2 0 -6 12 -13 28
-17 15 -3 36 -8 47 -11 18 -5 18 -4 4 8 -9 8 -18 20 -20 27 -3 8 -7 7 -15 -5z"/>
<path d="M223 254 c-21 -22 -16 -36 7 -24 14 8 26 8 41 0 25 -14 34 -7 24 17
-5 13 -9 14 -12 5 -4 -10 -8 -10 -19 -1 -8 6 -14 8 -14 3 0 -5 -4 -4 -8 2 -5
9 -10 8 -19 -2z"/>
<path d="M2972 261 c-14 -9 -6 -61 9 -61 13 0 11 14 -3 28 -10 10 -10 15 2 22
8 5 12 11 9 14 -2 3 -10 1 -17 -3z"/>
<path d="M615 252 c-15 -11 -15 -42 1 -42 8 0 14 10 14 25 0 27 0 28 -15 17z"/>
<path d="M814 225 c-9 -23 5 -37 27 -25 10 6 19 15 19 21 0 6 -4 7 -10 4 -5
-3 -10 -1 -10 4 0 16 -20 13 -26 -4z"/>
<path d="M966 221 c-15 -17 -16 -19 -1 -25 27 -10 35 -7 35 13 0 28 -15 33
-34 12z"/>
<path d="M1487 216 c-5 -15 -6 -31 -2 -34 3 -3 5 0 5 6 0 7 12 10 30 8 16 -2
27 1 24 5 -3 5 -14 9 -24 9 -10 0 -20 8 -22 18 -3 12 -6 9 -11 -12z"/>
<path d="M2321 214 c-26 -34 -27 -54 -1 -54 11 0 20 5 20 11 0 5 -4 7 -10 4
-5 -3 -10 1 -10 10 0 9 9 19 20 22 21 6 26 18 11 28 -5 3 -19 -7 -30 -21z"/>
<path d="M1627 213 c-12 -11 -8 -21 13 -26 15 -4 20 0 20 14 0 18 -20 26 -33
12z"/>
<path d="M1706 204 c-4 -10 0 -15 12 -13 37 3 42 -1 37 -28 l-5 -28 11 28 c8
21 8 32 0 40 -17 17 -48 18 -55 1z"/>
<path d="M1800 191 c0 -13 26 -32 33 -24 4 3 7 0 7 -7 0 -7 3 -11 6 -8 8 9
-19 48 -33 48 -7 0 -13 -4 -13 -9z"/>
<path d="M2020 189 c0 -7 -10 -9 -25 -7 -14 3 -28 2 -31 -3 -2 -4 -11 -6 -19
-2 -9 3 -15 -1 -15 -11 0 -19 1 -19 35 -6 18 7 33 7 45 0 13 -7 21 -7 25 0 5
8 11 8 19 1 14 -12 26 -5 26 16 0 8 -8 13 -17 11 -10 -1 -24 1 -30 5 -8 5 -13
3 -13 -4z"/>
<path d="M2125 191 c-7 -12 5 -19 27 -16 12 2 15 -2 11 -13 -4 -10 -3 -14 2
-10 4 4 16 3 25 -2 13 -7 21 -5 30 5 13 15 5 20 -27 16 -7 -1 -13 3 -13 10 0
6 -7 9 -15 5 -8 -3 -15 -1 -15 4 0 13 -17 13 -25 1z"/>
<path d="M2361 168 c16 -16 79 -23 79 -9 0 5 -8 9 -17 9 -10 -1 -31 2 -47 6
-24 6 -26 5 -15 -6z"/>
<path d="M318 145 c-4 -19 -1 -25 13 -25 20 0 23 8 13 34 -9 24 -21 19 -26 -9z"/>
<path d="M1888 137 c9 -10 7 -16 -8 -27 -18 -13 -18 -30 -1 -30 6 0 31 43 31
54 0 2 -7 7 -16 10 -13 5 -14 4 -6 -7z"/>
<path d="M1016 121 c-10 -16 8 -36 23 -27 6 4 11 15 11 24 0 13 -2 14 -9 3 -7
-11 -9 -11 -13 0 -4 11 -6 11 -12 0z"/>
<path d="M2306 49 c-11 -10 -16 -22 -13 -26 8 -7 47 25 47 39 0 13 -14 8 -34
-13z"/>
</g>
</svg>
