<?xml version="1.0" standalone="no"?>
<!DOCTYPE svg PUBLIC "-//W3C//DTD SVG 20010904//EN"
 "http://www.w3.org/TR/2001/REC-SVG-20010904/DTD/svg10.dtd">
<svg version="1.0" xmlns="http://www.w3.org/2000/svg"
 width="612.000000pt" height="454.000000pt" viewBox="0 0 612.000000 454.000000"
 preserveAspectRatio="xMidYMid meet">

<g transform="translate(0.000000,454.000000) scale(0.100000,-0.100000)"
fill="#000000" stroke="none">
<path d="M800 4369 c0 -11 5 -29 10 -39 6 -10 6 -21 2 -24 -12 -7 -52 22 -52
38 0 8 -7 19 -15 26 -19 16 -19 10 0 -80 8 -39 28 -98 45 -131 l29 -60 -62
-84 c-34 -46 -100 -144 -147 -219 -47 -75 -99 -157 -117 -183 -49 -75 -138
-234 -156 -281 -21 -54 -22 -135 -2 -152 8 -7 15 -18 15 -24 0 -23 60 -74 93
-79 50 -7 154 30 200 72 40 37 109 87 255 186 71 49 92 58 154 67 59 9 78 17
108 44 32 29 45 34 87 34 68 0 138 -25 203 -73 69 -50 444 -420 472 -465 11
-18 25 -56 32 -85 7 -28 28 -100 46 -159 27 -83 37 -105 47 -96 10 8 10 17 -2
45 -16 38 -45 181 -45 223 0 23 14 37 93 93 99 71 185 151 170 160 -6 4 -30
-14 -54 -39 -55 -57 -206 -177 -217 -172 -5 2 -51 53 -102 113 -121 141 -331
352 -393 394 l-49 33 9 47 c4 25 8 110 8 189 0 116 3 142 14 142 8 0 48 -18
90 -41 87 -46 58 -17 -35 36 -61 35 -74 49 -74 86 0 11 -47 67 -112 132 -111
112 -114 114 -183 131 -105 26 -161 56 -259 140 -50 42 -93 76 -98 76 -4 0 -8
-9 -8 -21z"/>
<path d="M1360 4046 l104 -105 16 24 c20 31 64 65 84 65 67 0 547 -159 796
-264 30 -13 81 -34 112 -47 36 -15 58 -30 58 -40 0 -9 -9 -42 -20 -74 -29 -86
-19 -90 14 -6 15 39 32 73 37 76 5 3 28 -1 53 -9 24 -8 96 -22 160 -30 171
-23 366 -77 366 -102 0 -6 -9 -47 -19 -90 -11 -44 -41 -167 -67 -274 -25 -107
-49 -198 -53 -202 -11 -12 -161 12 -229 38 -143 53 -392 205 -392 238 0 7 11
41 26 75 14 35 23 65 21 68 -3 2 -12 -15 -22 -40 -9 -24 -27 -57 -40 -73 l-23
-29 -64 61 c-176 168 -378 317 -573 423 -54 29 -57 30 -30 7 17 -14 69 -49
117 -78 154 -92 438 -314 504 -395 l36 -44 -31 -39 c-17 -21 -31 -42 -31 -46
0 -13 39 28 45 47 13 39 25 17 27 -48 2 -66 2 -67 5 -13 5 84 8 86 53 48 53
-46 245 -152 331 -183 48 -17 102 -27 170 -31 90 -6 99 -9 99 -27 0 -23 -77
-408 -87 -433 -4 -12 -1 -15 12 -13 10 2 19 13 21 24 17 119 66 365 73 365 4
0 25 -9 47 -19 21 -11 41 -17 44 -14 3 3 -2 8 -10 11 -8 3 -27 19 -42 35 -49
52 -31 120 46 169 31 20 26 20 -35 1 -20 -6 -21 -4 -15 33 4 21 20 93 35 159
16 66 37 154 46 196 10 42 21 82 24 88 5 8 38 5 117 -10 61 -11 155 -21 214
-21 111 -1 192 14 515 98 336 86 402 100 468 96 l47 -3 0 -167 c0 -202 5 -241
30 -235 9 3 46 -4 81 -15 35 -11 82 -22 104 -25 l40 -6 -35 11 c-19 6 -72 22
-117 35 l-83 25 0 62 c0 33 -3 119 -7 190 l-6 129 94 -6 c103 -7 245 -42 349
-86 84 -35 240 -119 240 -130 0 -13 -288 -261 -304 -261 -20 0 -20 -14 -2 -43
8 -12 33 -75 56 -141 35 -96 40 -120 29 -127 -9 -5 3 -7 31 -3 56 6 105 -17
137 -65 28 -42 29 -51 3 -51 -11 0 -20 -4 -20 -10 0 -5 9 -10 20 -10 11 0 20
-7 20 -16 0 -11 -6 -14 -22 -8 -22 6 -22 6 -5 -13 9 -11 17 -27 17 -35 0 -24
-67 -78 -98 -78 -24 -1 -25 -2 -10 -14 12 -8 21 -42 31 -107 7 -52 12 -99 10
-105 -2 -6 -18 -16 -36 -22 -73 -24 -168 -62 -229 -91 -36 -17 -72 -29 -79
-25 -19 7 -120 128 -139 165 -9 16 -31 42 -51 58 -19 16 -48 53 -64 82 -29 53
-30 58 -29 189 0 131 1 138 32 203 30 66 33 69 99 98 124 55 228 107 248 124
20 16 19 16 -3 5 -12 -6 -32 -8 -43 -5 -11 4 -18 2 -17 -3 2 -6 -1 -11 -6 -11
-17 -3 -15 30 2 36 31 12 43 43 16 43 -8 0 -12 -5 -8 -11 3 -6 -1 -10 -12 -9
-34 4 -54 0 -54 -10 0 -5 7 -10 15 -10 8 0 15 -4 15 -10 0 -5 -7 -10 -15 -10
-8 0 -15 -7 -15 -16 0 -14 2 -14 16 -3 14 12 16 11 13 -5 -4 -20 -193 -111
-210 -101 -5 4 -9 30 -9 60 0 39 4 54 16 59 23 9 24 8 24 -14 0 -11 5 -20 10
-20 6 0 10 15 10 33 0 18 5 38 12 45 19 19 -5 13 -32 -8 -35 -27 -40 -25 -42
18 -1 20 -4 -12 -7 -73 l-6 -110 -60 -7 c-94 -11 -478 -40 -606 -45 -103 -5
-117 -3 -134 13 -25 26 -77 64 -87 64 -4 0 12 -18 36 -40 41 -38 43 -42 36
-78 -4 -21 -10 -44 -14 -50 -11 -17 -87 -68 -121 -80 -25 -8 -26 -11 -8 -11
12 -1 52 19 89 44 36 25 71 45 75 45 5 0 9 -90 9 -199 0 -123 4 -202 10 -206
7 -4 10 76 10 232 l0 239 204 17 c297 26 545 42 551 35 3 -3 -9 -36 -27 -74
-31 -65 -33 -77 -36 -204 -4 -119 -6 -138 -25 -157 -21 -23 -103 -78 -189
-127 -48 -27 -57 -39 -38 -51 15 -9 228 117 246 146 3 5 39 -21 80 -58 83 -76
106 -116 169 -296 21 -60 54 -134 73 -165 40 -67 63 -130 87 -237 10 -43 28
-104 41 -136 19 -46 24 -77 24 -146 0 -154 -20 -404 -36 -447 -9 -23 -19 -62
-24 -87 -13 -73 -55 -146 -104 -180 -38 -27 -126 -151 -126 -178 0 -14 101
-22 167 -12 92 14 118 29 119 71 1 70 45 134 115 170 48 25 64 66 64 165 1 44
6 121 12 170 7 50 19 169 28 265 9 96 19 182 22 190 2 9 26 -26 57 -85 28 -55
63 -118 76 -139 22 -37 25 -54 32 -230 5 -105 6 -265 2 -356 -7 -181 -16 -219
-71 -277 -58 -61 -98 -134 -94 -170 2 -19 63 -26 122 -15 30 6 75 13 101 17
55 7 63 21 47 85 -10 41 -9 50 10 88 l21 42 -71 0 -71 0 6 38 c18 109 26 389
17 564 -11 200 -21 244 -68 305 -16 21 -56 85 -87 143 -32 58 -86 141 -120
185 -73 94 -139 191 -221 323 -14 24 -24 50 -21 58 7 18 126 77 210 103 37 11
94 21 125 21 l56 0 18 -102 c19 -115 54 -193 157 -360 99 -159 112 -241 126
-824 l7 -292 -26 -46 c-14 -25 -28 -60 -31 -78 l-7 -33 17 30 c9 17 30 41 46
55 l30 25 -11 170 c-9 134 -19 538 -21 827 0 27 -10 49 -41 88 -53 67 -198
310 -185 310 3 0 21 -20 40 -45 18 -25 100 -114 180 -197 105 -110 149 -149
155 -140 6 10 15 5 35 -20 l26 -33 0 43 0 43 31 -21 c16 -12 32 -20 34 -18 3
2 -4 28 -15 56 -23 61 -25 85 -5 58 8 -11 17 -17 20 -15 2 3 -7 59 -21 125
-14 65 -36 182 -49 259 -13 77 -30 159 -39 183 -8 23 -11 42 -6 42 17 0 11 21
-20 71 -47 76 -79 162 -100 266 -25 118 -26 153 -4 153 15 0 14 3 -2 28 -24
36 -46 130 -31 135 7 2 5 19 -6 49 -13 41 -14 47 -1 50 11 2 -5 32 -56 106
-69 100 -119 147 -190 181 -19 9 -60 33 -90 52 -171 112 -418 196 -602 206
-84 5 -111 3 -124 -8 -12 -9 -18 -10 -21 -3 -5 14 -73 3 -223 -36 -707 -183
-729 -184 -1110 -54 -66 22 -140 39 -200 45 -232 25 -305 47 -650 194 -216 92
-386 149 -580 195 -52 13 -164 40 -248 61 -84 22 -156 39 -160 39 -4 0 40 -47
98 -104z m3905 -653 c46 -72 92 -176 116 -261 40 -144 12 -411 -68 -652 l-28
-85 -60 0 c-33 -1 -70 -5 -82 -9 -20 -6 -22 -3 -28 51 -4 32 -11 78 -16 103
-8 44 -7 46 32 79 34 29 79 91 65 91 -3 0 -1 13 5 28 21 61 -58 155 -142 168
-37 6 -39 8 -65 83 -15 42 -38 103 -51 136 l-24 60 32 25 c66 52 235 197 248
213 21 26 34 21 66 -30z"/>
<path d="M5260 3219 c0 -7 -11 -9 -29 -6 -23 5 -30 2 -40 -19 -15 -33 -14 -37
4 -30 17 6 21 -19 5 -29 -5 -3 -10 -12 -10 -18 1 -12 34 23 57 59 10 17 12 13
12 -23 1 -24 6 -43 11 -43 6 0 10 9 10 20 0 12 7 20 18 20 16 1 16 1 0 14 -10
7 -18 25 -18 40 0 14 -4 26 -10 26 -5 0 -10 -5 -10 -11z"/>
<path d="M5210 3082 c0 -4 5 -13 12 -20 9 -9 8 -12 -5 -12 -9 0 -17 -4 -17
-10 0 -5 5 -10 10 -10 6 0 10 -8 10 -18 0 -25 19 -42 47 -42 30 0 30 18 1 22
-31 4 -29 30 2 39 25 6 24 8 -20 23 -11 3 -9 6 7 11 13 4 20 11 17 16 -7 11
-64 12 -64 1z"/>
<path d="M5210 2938 c0 -4 5 -10 12 -14 7 -5 5 -11 -7 -21 -11 -7 -14 -13 -8
-13 7 0 13 -10 15 -21 4 -29 30 -45 54 -34 17 8 15 9 -9 13 -20 2 -27 8 -25
20 2 9 10 18 18 18 31 3 34 6 12 12 -23 7 -32 27 -12 27 6 0 9 4 8 9 -3 11
-58 14 -58 4z"/>
<path d="M1864 3779 c-3 -6 -8 -32 -9 -58 l-3 -46 19 43 c11 23 27 42 35 42 8
0 12 5 9 10 -4 6 -11 8 -16 5 -5 -4 -9 -1 -9 4 0 14 -17 14 -26 0z"/>
<path d="M1964 3781 c-10 -10 -3 -21 16 -21 17 0 18 -3 8 -25 -9 -21 -8 -28 7
-45 17 -19 45 -27 45 -14 0 3 -10 14 -22 23 -25 21 -19 50 12 58 11 3 20 9 20
13 0 9 -78 19 -86 11z"/>
<path d="M2090 3775 c0 -8 -3 -15 -7 -15 -5 0 -8 -18 -8 -40 -1 -47 13 -53 22
-10 8 41 23 48 23 11 0 -16 -6 -31 -12 -34 -7 -2 -10 -8 -6 -12 17 -18 38 6
38 42 l1 38 15 -25 15 -25 -5 33 c-3 18 -1 32 4 32 6 0 10 5 10 10 0 16 -27
12 -34 -5 -3 -8 -12 -15 -21 -15 -8 0 -15 7 -15 15 0 8 -4 15 -10 15 -5 0 -10
-7 -10 -15z"/>
<path d="M2207 3784 c-12 -12 -8 -24 8 -24 8 0 15 -4 15 -10 0 -5 -7 -10 -15
-10 -8 0 -19 -10 -26 -21 -9 -17 -8 -24 4 -36 13 -13 17 -11 35 11 26 33 36
33 27 -1 l-6 -26 24 23 c20 19 22 27 13 46 -12 26 -25 31 -27 12 -1 -7 -4 -2
-8 12 -7 25 -30 37 -44 24z"/>
<path d="M1900 3740 c0 -5 9 -10 20 -10 11 0 20 5 20 10 0 6 -9 10 -20 10 -11
0 -20 -4 -20 -10z"/>
<path d="M1886 3702 c-12 -19 3 -32 35 -32 18 0 28 4 24 10 -3 6 -15 10 -25
10 -10 0 -20 5 -22 12 -3 9 -6 9 -12 0z"/>
<path d="M4720 3500 c0 -5 11 -10 24 -10 14 0 28 5 31 10 4 6 -7 10 -24 10
-17 0 -31 -4 -31 -10z"/>
<path d="M4837 3503 c-4 -3 -7 -16 -7 -27 0 -12 -7 -33 -15 -49 l-14 -27 54 1
c30 1 55 5 55 9 0 4 -9 18 -21 31 l-20 24 6 -22 c5 -19 2 -23 -15 -23 -21 0
-21 7 -3 73 4 17 -7 23 -20 10z"/>
<path d="M2447 3440 c-8 -22 -13 -40 -11 -40 7 0 36 71 31 76 -2 2 -11 -14
-20 -36z"/>
<path d="M4710 3471 c0 -6 14 -11 30 -11 36 0 40 -21 8 -43 -17 -12 -19 -16
-7 -16 22 -1 51 34 47 56 -2 13 -14 19 -41 21 -21 2 -37 -1 -37 -7z"/>
<path d="M1751 3422 c-5 -9 -12 -16 -15 -14 -3 1 -9 1 -13 1 -5 -1 6 -4 22 -8
l30 -7 -32 -20 c-32 -20 -36 -38 -7 -27 8 3 14 -1 14 -11 0 -9 5 -16 10 -16 6
0 10 9 10 20 0 23 10 26 28 8 9 -9 12 -9 12 0 0 6 -8 15 -17 21 -13 7 -14 13
-7 23 8 9 6 18 -7 30 -17 16 -19 16 -28 0z"/>
<path d="M1917 3402 c-7 -36 -3 -38 25 -10 l23 23 3 -25 c3 -16 -4 -30 -18
-42 -12 -10 -20 -23 -18 -30 7 -20 58 38 58 66 0 27 -3 30 -41 40 -23 5 -27 2
-32 -22z"/>
<path d="M1841 3393 c-10 -11 -10 -18 -2 -26 8 -8 11 -6 11 7 0 9 5 14 10 11
6 -3 10 -2 10 4 0 17 -15 19 -29 4z"/>
<path d="M2556 3397 c3 -8 1 -32 -4 -55 -11 -46 -5 -60 14 -34 13 16 13 16 14
-1 0 -15 3 -15 20 -5 17 11 22 10 29 -1 16 -26 29 -1 29 54 l-1 55 -53 0 c-40
0 -52 -3 -48 -13z"/>
<path d="M1879 3370 c-6 -16 -15 -30 -20 -30 -5 0 -9 -8 -9 -17 1 -26 50 32
50 58 0 28 -10 23 -21 -11z"/>
<path d="M2680 3353 l0 -48 45 0 45 0 0 48 0 47 -45 0 -45 0 0 -47z m65 2 c0
-23 -4 -30 -20 -30 -21 0 -31 25 -21 51 11 28 41 12 41 -21z"/>
<path d="M2933 3393 c35 -6 35 -27 -2 -64 -16 -16 -24 -29 -16 -29 7 0 18 7
25 15 12 14 15 14 31 -1 25 -22 37 -10 15 15 -12 13 -15 27 -10 45 6 25 4 26
-32 25 -31 -2 -33 -3 -11 -6z"/>
<path d="M2808 3353 c18 -2 45 -2 60 0 15 2 0 4 -33 4 -33 0 -45 -2 -27 -4z"/>
<path d="M3690 3312 l0 -47 40 0 40 0 0 47 0 48 -40 0 -40 0 0 -48z m68 7 c3
-22 -2 -27 -22 -31 -24 -5 -26 -2 -26 29 0 30 3 34 23 31 15 -2 23 -11 25 -29z"/>
<path d="M3933 3353 c35 -6 35 -29 0 -65 -32 -34 -26 -46 10 -18 24 19 26 19
36 3 5 -10 13 -15 17 -10 4 4 0 15 -9 24 -10 12 -13 28 -10 46 5 26 4 27 -33
26 -30 -2 -33 -3 -11 -6z"/>
<path d="M3813 3313 c15 -2 39 -2 55 0 15 2 2 4 -28 4 -30 0 -43 -2 -27 -4z"/>
<path d="M4650 3209 c0 -5 5 -7 10 -4 6 3 10 1 10 -4 0 -6 -7 -11 -15 -11 -8
0 -15 -5 -15 -11 0 -6 7 -9 15 -5 18 7 20 -15 3 -32 -9 -9 -9 -12 1 -12 7 0
15 9 18 20 3 11 12 20 19 20 17 0 18 17 2 23 -10 4 -9 8 2 16 12 8 8 11 -17
11 -18 0 -33 -5 -33 -11z"/>
<path d="M3291 3116 c2 -2 56 -5 119 -8 70 -3 99 -2 75 3 -40 8 -202 12 -194
5z"/>
<path d="M3233 3103 c9 -2 25 -2 35 0 9 3 1 5 -18 5 -19 0 -27 -2 -17 -5z"/>
<path d="M3188 3093 c7 -3 16 -2 19 1 4 3 -2 6 -13 5 -11 0 -14 -3 -6 -6z"/>
<path d="M3538 3093 c7 -3 16 -2 19 1 4 3 -2 6 -13 5 -11 0 -14 -3 -6 -6z"/>
<path d="M2343 3005 c0 -22 2 -30 4 -17 2 12 2 30 0 40 -3 9 -5 -1 -4 -23z"/>
<path d="M2250 2985 c0 -10 -11 -15 -35 -15 -19 0 -35 -4 -35 -10 0 -5 16 -10
35 -10 34 0 35 -1 24 -22 -6 -13 -21 -31 -33 -40 -16 -14 -18 -18 -5 -18 24 0
59 43 59 73 0 14 5 29 10 32 12 7 4 25 -11 25 -5 0 -9 -7 -9 -15z"/>
<path d="M3280 2945 c0 -50 2 -55 25 -61 14 -3 33 -3 42 2 14 6 11 9 -14 12
-27 3 -33 8 -33 27 0 16 7 25 25 29 14 4 25 11 25 16 0 6 -11 8 -25 4 -19 -5
-25 -2 -25 10 0 9 -4 16 -10 16 -5 0 -10 -25 -10 -55z"/>
<path d="M3380 2945 c0 -32 4 -55 10 -55 20 0 68 29 73 45 9 21 -7 19 -28 -5
-27 -30 -35 -25 -35 25 0 25 -4 45 -10 45 -5 0 -10 -25 -10 -55z"/>
<path d="M4675 2902 c-11 -2 -23 -9 -27 -16 -11 -17 -10 -84 2 -91 6 -3 10 1
10 9 0 9 6 16 14 16 8 0 17 7 20 16 6 15 8 15 26 -1 10 -9 16 -24 13 -32 -4
-11 -2 -14 8 -11 16 5 26 86 12 98 -12 11 -55 18 -78 12z m15 -30 c0 -5 -7
-17 -15 -28 -14 -18 -14 -18 -15 9 0 17 5 27 15 27 8 0 15 -4 15 -8z m50 -8
c0 -17 -22 -14 -28 4 -2 7 3 12 12 12 9 0 16 -7 16 -16z"/>
<path d="M4932 2863 c-7 -3 -20 -19 -28 -36 -9 -18 -12 -27 -7 -22 62 71 60
68 35 58z"/>
<path d="M2187 2833 c-11 -10 -8 -51 3 -58 6 -4 10 8 10 29 0 37 -2 41 -13 29z"/>
<path d="M2238 2834 c-5 -4 -8 -23 -8 -42 0 -22 -7 -40 -17 -48 -10 -7 -14
-16 -10 -20 4 -4 17 1 28 12 15 16 20 31 17 63 -2 24 -6 39 -10 35z"/>
<path d="M4882 2749 c-3 -72 48 -137 114 -144 39 -5 39 -5 6 4 -33 9 -92 56
-92 74 0 5 11 23 25 39 14 17 23 33 20 37 -4 3 -16 -6 -27 -22 -25 -34 -39
-27 -27 16 11 40 12 37 -4 37 -9 0 -14 -14 -15 -41z"/>
<path d="M5061 2767 c-7 -17 -4 -24 11 -30 17 -6 18 -10 8 -22 -17 -21 -9 -27
13 -10 28 20 27 65 -1 76 -19 7 -24 5 -31 -14z m42 -14 c-7 -2 -19 -2 -25 0
-7 3 -2 5 12 5 14 0 19 -2 13 -5z"/>
<path d="M2465 2721 c-1 -45 2 -57 11 -50 8 7 14 6 17 -3 4 -10 7 -10 15 1 12
16 47 7 36 -10 -4 -7 -1 -10 7 -7 9 3 15 25 17 66 l3 62 -53 0 -53 0 0 -59z"/>
<path d="M2672 2772 c-15 -10 0 -62 18 -62 6 0 6 9 0 25 -7 20 -6 25 5 25 8 0
15 5 15 10 0 12 -20 13 -38 2z"/>
<path d="M4970 2770 c0 -5 7 -10 16 -10 8 0 12 5 9 10 -3 6 -10 10 -16 10 -5
0 -9 -4 -9 -10z"/>
<path d="M2738 2763 c12 -2 30 -2 40 0 9 3 -1 5 -23 4 -22 0 -30 -2 -17 -4z"/>
<path d="M2612 2714 c-7 -26 -10 -49 -7 -52 6 -6 35 61 35 83 0 31 -16 13 -28
-31z"/>
<path d="M4668 2753 c18 -7 15 -31 -5 -36 -17 -4 -17 -5 0 -6 11 -1 17 -9 17
-26 0 -18 7 -26 26 -31 14 -4 30 -2 37 5 8 8 4 11 -16 11 -38 0 -38 37 1 43
l27 4 -27 2 c-34 1 -38 28 -5 34 12 2 2 5 -23 5 -25 0 -39 -2 -32 -5z"/>
<path d="M5020 2745 c0 -9 -11 -21 -25 -27 -30 -13 -33 -28 -5 -21 31 8 66 63
40 63 -5 0 -10 -7 -10 -15z"/>
<path d="M2720 2730 c0 -5 14 -10 30 -10 36 0 37 -6 8 -37 -16 -18 -18 -23 -6
-23 21 0 48 32 48 58 0 19 -6 22 -40 22 -22 0 -40 -4 -40 -10z"/>
<path d="M3958 2728 c0 -7 -2 -17 -2 -23 -1 -5 -6 -16 -11 -24 -5 -10 -4 -16
3 -19 7 -2 12 -15 12 -28 0 -25 22 -32 49 -15 9 6 22 6 33 0 14 -7 18 -6 18 6
0 8 -4 15 -10 15 -6 0 -5 10 2 26 9 20 9 27 -1 33 -7 5 -12 11 -12 15 2 16 0
18 -14 6 -13 -11 -14 -10 -8 6 6 17 5 17 -10 6 -8 -8 -13 -20 -10 -28 6 -16
-5 -18 -26 -5 -9 6 -10 11 -2 15 6 4 11 11 11 17 0 14 -20 11 -22 -3z m35 -67
c-4 -3 -11 -10 -15 -15 -5 -5 -8 0 -8 12 0 15 4 20 16 15 9 -3 12 -9 7 -12z"/>
<path d="M4155 2731 c-7 -12 17 -101 27 -101 12 0 10 25 -4 56 -10 22 -10 28
0 32 6 2 12 8 12 13 0 12 -27 12 -35 0z"/>
<path d="M4099 2679 c-9 -27 -12 -52 -7 -55 12 -7 30 45 26 77 -3 24 -5 21
-19 -22z"/>
<path d="M4210 2720 c0 -5 14 -10 30 -10 17 0 30 5 30 10 0 6 -13 10 -30 10
-16 0 -30 -4 -30 -10z"/>
<path d="M2680 2691 c0 -6 5 -13 10 -16 6 -3 10 1 10 9 0 9 -4 16 -10 16 -5 0
-10 -4 -10 -9z"/>
<path d="M4205 2691 c3 -6 19 -11 36 -11 36 0 37 -12 2 -38 -17 -12 -22 -21
-15 -26 15 -9 64 43 60 63 -2 11 -17 17 -47 19 -28 2 -41 0 -36 -7z"/>
<path d="M2180 2680 c0 -5 11 -10 25 -10 33 0 31 -16 -6 -51 -18 -16 -29 -32
-25 -36 3 -4 16 3 29 15 22 20 24 21 40 5 22 -22 35 -9 14 14 -10 12 -13 28
-10 46 5 25 3 27 -31 27 -20 0 -36 -4 -36 -10z"/>
<path d="M3210 2650 c0 -5 -3 -9 -7 -7 -8 2 -14 -7 -12 -20 1 -5 0 -24 -1 -44
-1 -21 3 -40 9 -44 6 -3 11 1 11 9 0 9 4 16 10 16 5 0 7 -7 3 -16 -4 -12 -2
-15 8 -12 9 3 14 20 15 46 1 57 14 66 16 11 l1 -44 7 45 c8 53 13 44 10 -20
-2 -60 16 -41 23 23 4 43 2 49 -17 57 -12 4 -26 4 -33 -2 -7 -6 -14 -5 -18 2
-8 13 -25 13 -25 0z"/>
<path d="M3401 2651 c-12 -8 -13 -14 -3 -36 7 -14 12 -35 12 -45 0 -11 7 -20
15 -20 12 0 12 5 0 41 -14 38 -14 43 2 55 15 11 15 13 3 14 -8 0 -21 -4 -29
-9z"/>
<path d="M3350 2630 c0 -12 -7 -34 -15 -50 -13 -26 -14 -30 -1 -30 8 0 17 8
19 18 14 51 16 71 7 77 -5 3 -10 -3 -10 -15z"/>
<path d="M3455 2640 c3 -6 18 -8 32 -6 40 8 40 16 -1 16 -22 0 -35 -4 -31 -10z"/>
<path d="M3445 2610 c3 -5 19 -10 36 -10 34 0 38 -14 9 -32 -23 -15 -26 -28
-6 -28 18 0 46 38 46 62 0 15 -9 18 -46 18 -27 0 -43 -4 -39 -10z"/>
<path d="M4668 2613 c6 -2 12 -11 12 -19 0 -9 -4 -13 -9 -9 -5 3 -12 1 -16 -5
-3 -5 1 -10 9 -10 9 0 16 -11 18 -27 2 -24 8 -29 37 -31 21 -2 31 0 26 7 -3 6
-15 11 -26 11 -12 0 -19 7 -19 20 0 15 7 20 27 20 14 0 23 3 19 7 -4 4 -15 8
-23 8 -26 0 -26 23 -1 28 13 2 3 5 -22 5 -25 0 -39 -2 -32 -5z"/>
<path d="M2050 2535 c-12 -14 -5 -55 9 -55 17 0 32 30 26 50 -8 24 -18 25 -35
5z"/>
<path d="M2191 2534 c0 -11 3 -14 6 -6 3 7 2 16 -1 19 -3 4 -6 -2 -5 -13z"/>
<path d="M2238 2533 c-10 -2 -15 -10 -11 -19 3 -8 -2 -25 -11 -39 -23 -36 -20
-42 9 -15 14 13 25 32 25 42 0 10 5 18 10 18 6 0 10 5 10 10 0 10 -3 11 -32 3z"/>
<path d="M2565 2469 c11 -6 31 -23 43 -38 20 -22 22 -22 13 -4 -12 24 -49 53
-66 53 -5 0 -1 -5 10 -11z"/>
<path d="M2400 2448 c-11 -12 -20 -26 -20 -32 0 -5 1 -7 3 -5 1 2 13 16 26 32
29 32 21 37 -9 5z"/>
<path d="M2100 2435 c-10 -12 -10 -18 0 -30 26 -31 59 -11 40 25 -13 24 -23
25 -40 5z"/>
<path d="M2894 2383 c-3 -16 -10 -41 -14 -56 -7 -21 -6 -29 6 -34 21 -8 22 -4
30 60 5 39 3 57 -4 57 -7 0 -14 -12 -18 -27z"/>
<path d="M3749 2403 c-1 -5 -2 -37 -2 -73 l-2 -65 -50 -6 c-27 -4 -76 -10
-109 -14 -41 -5 -55 -10 -48 -17 11 -11 190 3 211 16 9 6 16 166 7 166 -4 0
-6 -3 -7 -7z"/>
<path d="M3195 2391 c-3 -6 2 -14 10 -19 14 -7 13 -11 -5 -35 -12 -15 -17 -27
-11 -27 6 0 20 14 31 32 14 24 16 35 8 45 -12 15 -25 17 -33 4z"/>
<path d="M3260 2391 c0 -5 -3 -17 -7 -27 -4 -12 -3 -15 5 -10 7 4 15 0 19 -10
4 -10 2 -19 -5 -22 -7 -2 -12 -8 -12 -13 0 -5 11 -4 24 2 23 11 42 57 28 70
-13 13 -52 20 -52 10z m35 -21 c3 -5 -1 -10 -10 -10 -9 0 -13 5 -10 10 3 6 8
10 10 10 2 0 7 -4 10 -10z"/>
<path d="M3484 2344 c-9 -26 -8 -34 1 -34 13 0 27 58 16 65 -4 2 -11 -12 -17
-31z"/>
<path d="M4097 2359 c-4 -15 -2 -19 10 -15 8 3 17 6 19 6 2 0 4 7 4 15 0 23
-27 18 -33 -6z"/>
<path d="M2190 2355 c-7 -9 -11 -17 -9 -19 2 -2 23 -15 47 -30 23 -15 47 -38
53 -52 8 -22 12 -24 24 -14 21 17 20 80 -1 80 -8 0 -35 11 -58 25 -39 23 -45
24 -56 10z"/>
<path d="M2613 2285 c0 -27 2 -40 4 -27 6 29 29 23 25 -6 -2 -12 2 -22 7 -22
6 0 11 13 11 29 0 21 -6 32 -19 36 -11 3 -22 14 -24 23 -3 9 -5 -5 -4 -33z"/>
<path d="M2645 2321 c-3 -5 -1 -12 5 -16 5 -3 10 1 10 9 0 18 -6 21 -15 7z"/>
<path d="M3345 2320 c-17 -7 -14 -9 13 -9 20 -1 31 3 27 9 -7 12 -13 12 -40 0z"/>
<path d="M3906 2307 c-65 -21 -99 -47 -61 -47 38 0 155 42 155 56 0 18 -10 17
-94 -9z"/>
<path d="M2360 2311 c0 -6 7 -8 15 -5 26 10 31 -27 6 -47 -12 -10 -17 -20 -12
-23 13 -8 53 44 49 63 -3 18 -58 29 -58 12z"/>
<path d="M2430 2283 c0 -39 0 -39 41 -40 l40 -1 -3 37 c-3 34 -5 36 -40 39
-38 3 -38 3 -38 -35z m60 2 c0 -18 -5 -25 -20 -25 -15 0 -20 7 -20 25 0 18 5
25 20 25 15 0 20 -7 20 -25z"/>
<path d="M2530 2295 c-7 -9 -9 -19 -5 -23 4 -4 10 -1 12 6 6 17 23 15 23 -3 0
-7 -7 -18 -16 -23 -11 -6 -13 -12 -6 -16 12 -7 42 31 42 53 0 8 -3 11 -7 8 -3
-4 -12 -2 -18 3 -9 7 -16 6 -25 -5z"/>
<path d="M2750 2240 c0 -10 -9 -24 -20 -30 -11 -6 -20 -20 -20 -30 0 -13 -7
-20 -19 -20 -11 0 -22 -8 -25 -17 -6 -20 -26 -188 -26 -218 0 -18 2 -18 20 5
11 14 20 20 20 14 0 -6 -7 -18 -16 -25 -28 -23 -33 -55 -44 -265 -9 -162 -15
-217 -31 -259 -29 -78 -39 -192 -39 -452 0 -220 -1 -234 -20 -250 -11 -10 -32
-30 -47 -46 -24 -24 -33 -27 -94 -27 -37 0 -70 4 -73 9 -9 13 -138 -117 -175
-177 -41 -65 -36 -82 23 -82 55 0 196 28 215 43 8 7 11 24 8 48 -4 29 0 42 14
55 10 9 19 23 19 29 0 18 89 115 105 115 32 0 37 28 36 227 0 282 11 432 36
475 16 25 23 65 32 173 16 195 24 222 32 110 5 -73 12 -103 39 -158 41 -88 60
-157 60 -229 0 -31 5 -69 11 -85 16 -40 12 -217 -6 -288 -12 -49 -23 -67 -60
-101 -25 -22 -45 -45 -45 -51 0 -5 -16 -31 -35 -56 -19 -25 -35 -50 -35 -55 0
-28 198 -29 258 -2 46 21 48 26 27 54 -8 11 -15 29 -15 41 0 49 87 189 123
199 18 4 19 10 14 63 -4 32 -18 108 -32 168 -82 352 -77 321 -64 399 16 90 16
109 -9 351 -12 110 -22 228 -23 263 -1 40 -6 62 -14 62 -7 0 -20 9 -30 20 -24
27 -75 27 -75 0z"/>
<path d="M3030 2235 c0 -11 11 -15 40 -15 29 0 40 4 40 15 0 11 -11 15 -40 15
-29 0 -40 -4 -40 -15z"/>
<path d="M3194 2241 c-14 -14 3 -21 56 -21 33 0 60 4 60 9 0 9 -108 20 -116
12z"/>
<path d="M3385 2230 c3 -5 17 -10 31 -10 13 0 24 5 24 10 0 6 -14 10 -31 10
-17 0 -28 -4 -24 -10z"/>
<path d="M2400 2179 c23 -44 62 -68 109 -69 36 0 49 6 77 34 19 19 34 40 34
48 -1 7 -7 1 -15 -13 -20 -37 -58 -59 -101 -59 -31 0 -44 7 -77 42 -26 27 -35
33 -27 17z"/>
<path d="M2303 2161 c-9 -15 -7 -43 12 -132 23 -113 44 -282 46 -369 1 -25 -2
-110 -6 -190 -7 -133 -6 -150 14 -205 14 -40 21 -83 21 -135 0 -111 -18 -282
-35 -330 -8 -24 -15 -54 -15 -69 0 -15 -7 -37 -16 -49 -9 -13 -14 -25 -11 -28
7 -8 33 38 50 91 24 75 36 162 43 329 5 125 3 159 -10 195 -13 34 -16 85 -16
239 0 219 -14 432 -36 567 -17 99 -24 114 -41 86z"/>
<path d="M5115 2100 c-3 -6 5 -10 19 -10 38 0 40 -15 5 -54 -32 -37 -28 -47 7
-22 17 13 21 12 37 -1 24 -23 34 -7 11 18 -11 13 -17 32 -16 50 3 26 1 29 -27
29 -16 0 -33 -4 -36 -10z"/>
<path d="M5145 1960 c-4 -6 -10 -8 -15 -5 -5 3 -11 1 -15 -5 -4 -6 5 -10 19
-10 33 0 33 -13 1 -30 -31 -16 -33 -34 -3 -25 16 6 20 4 15 -9 -3 -8 -2 -18 3
-21 6 -4 10 7 10 23 0 16 7 35 15 42 20 16 19 23 -5 37 -12 8 -21 9 -25 3z"/>
<path d="M5180 1895 c7 -9 15 -13 17 -11 7 7 -7 26 -19 26 -6 0 -6 -6 2 -15z"/>
<path d="M2460 1834 c0 -12 6 -15 25 -12 35 7 32 -13 -6 -52 -37 -37 -34 -49
5 -19 26 21 28 21 41 3 7 -11 17 -15 22 -11 4 5 0 14 -10 22 -12 8 -17 23 -15
46 3 32 1 34 -29 37 -26 3 -33 -1 -33 -14z"/>
<path d="M2485 1700 c-4 -6 -11 -8 -16 -5 -5 4 -9 -1 -9 -11 0 -11 6 -15 20
-11 29 7 25 -11 -5 -25 -30 -13 -34 -32 -5 -23 16 5 20 2 20 -14 0 -12 5 -21
10 -21 6 0 10 12 10 26 0 23 2 25 15 14 9 -7 18 -10 22 -6 4 3 -2 12 -12 20
-10 7 -15 18 -11 25 4 6 1 18 -8 26 -17 18 -23 18 -31 5z"/>
<path d="M5273 173 c15 -2 37 -2 50 0 12 2 0 4 -28 4 -27 0 -38 -2 -22 -4z"/>
<path d="M5738 173 c7 -3 16 -2 19 1 4 3 -2 6 -13 5 -11 0 -14 -3 -6 -6z"/>
<path d="M5413 163 c15 -2 37 -2 50 0 12 2 0 4 -28 4 -27 0 -38 -2 -22 -4z"/>
<path d="M5568 163 c7 -3 16 -2 19 1 4 3 -2 6 -13 5 -11 0 -14 -3 -6 -6z"/>
<path d="M5663 163 c9 -2 23 -2 30 0 6 3 -1 5 -18 5 -16 0 -22 -2 -12 -5z"/>
<path d="M5273 123 c15 -2 37 -2 50 0 12 2 0 4 -28 4 -27 0 -38 -2 -22 -4z"/>
<path d="M5668 113 c6 -2 18 -2 25 0 6 3 1 5 -13 5 -14 0 -19 -2 -12 -5z"/>
<path d="M5668 73 c6 -2 18 -2 25 0 6 3 1 5 -13 5 -14 0 -19 -2 -12 -5z"/>
<path d="M5838 63 c12 -2 32 -2 45 0 12 2 2 4 -23 4 -25 0 -35 -2 -22 -4z"/>
</g>
</svg>
